<?xml version="1.0" encoding="UTF-8"?>
<svg id="WS" xmlns="http://www.w3.org/2000/svg" version="1.1" viewBox="0 0 1024 1024">
  <!-- Generator: Adobe Illustrator 29.5.1, SVG Export Plug-In . SVG Version: 2.1.0 Build 141)  -->
  <defs>
    <style>
      .st0 {
        fill: #fff;
      }
    </style>
  </defs>
  <path id="S" class="st0" d="M911.15,334.22c-.11.65-.99,1.88-1.6,2.34l-127.24,72.69v-73.65h-109.52v213.58l3.63-.51,233.8-134.81.68,2.54-.86,432.26-129.11,135.98h-236.06l-.47-127.06,128.4-73.64v73.65h109.52v-220.95l-238.36,135.33V207.64h365.82l1.38,1.38v125.2Z"/>
  <path id="W" class="st0" d="M266.01,207.64v578.15l3.74-1.32,51.01-59.43,50.56,59.88,3.28.86V207.64h128.84l-.92,777.01h-127.92c-.12,0-.13-1.51-.89-2.29-17.08-17.49-31.62-38.35-48.34-55.72-1.57-1.63-3.01-3.78-5.54-3.77l-53.36,60.86-129.31-135.79V207.64h128.84Z"/>
  <path id="Coroa" class="st0" d="M674.62,43.76l-17.47,113.24h-286.22s-17.47-113.24-17.47-113.24l35.48,31.31-.44,2.33-13.69,11.65c.07,16.8,15.09,29.85,27.9,38.49,8.82-5.1,24.47-27.52,18.9-37.34l-18.44-14.66,28.91-32.68,33.59,32.77c.43,2.37-13.8,11.07-15.12,13.23-1.85,3.05.45,10.59,1.83,13.81,1.8,4.19,12.78,18.07,16.52,20.3,4.15,2.48,7.58-2.81,10.19-5.56,8.76-9.26,19.53-24.74,16.99-38.2-.89-4.7-22.62-16.71-22.04-19.3l40-43.78,39.69,43.24-.49,2.36c-4.49,4.77-16.34,10.61-19.94,15.08-3.69,4.59-.22,16.79,2.21,21.87s14.78,21.78,19.16,24.11c1.1.58,2,1.27,3.36.92.82-.21,10.06-9.47,11.25-10.91,4.2-5.12,10.89-16.66,8.58-23.34-.82-2.36-15.84-11.54-15.43-13.84l33.53-32.79,28.94,32.74c.35,1.23-.69,1.52-1.47,2.09-2.77,2-15.16,9.66-16.37,11.23-2.57,3.33-.66,12.76.87,16.52,1.67,4.1,13.4,22.16,17.48,22.14,9.66-5.58,30.22-25.55,28.06-37.28-.65-3.51-11.58-9.67-13.87-12.89-.58-.81-1.26-1.29-.45-2.34l35.48-31.31Z"/>
</svg>